HIERARCHY
ROOT base
{
	OFFSET 0.0 0.0 0.0
	CHANNELS 6 Xposition Yposition Zposition Zrotation Yrotation Xrotation
	JOINT root
	{
		OFFSET 0 0 0
		CHANNELS 6 Xposition Yposition Zposition Zrotation Yrotation Xrotation
		JOINT chest
		{
			OFFSET 0 4.72302 0
			CHANNELS 3 Zrotation Yrotation Xrotation
			JOINT neck
			{
				OFFSET 0 4.47788 0
				CHANNELS 3 Zrotation Yrotation Xrotation
				End Site
				{
					OFFSET 0.0 0.0 0.0
				}
			}
			JOINT right_shoulder
			{
				OFFSET -0.481 4.87 3.6622
				CHANNELS 3 Zrotation Yrotation Xrotation
				JOINT right_elbow
				{
					OFFSET 0 -5.49576 0
					CHANNELS 3 Zrotation Yrotation Xrotation
					JOINT right_wrist
					{
						OFFSET 0 -5.17894 0
						CHANNELS 3 Zrotation Yrotation Xrotation
						End Site
						{
							OFFSET 0.0 0.0 0.0
						}
					}
				}
			}
			JOINT left_shoulder
			{
				OFFSET -0.481 4.87 -3.6622
				CHANNELS 3 Zrotation Yrotation Xrotation
				JOINT left_elbow
				{
					OFFSET 0 -5.49576 0
					CHANNELS 3 Zrotation Yrotation Xrotation
					JOINT left_wrist
					{
						OFFSET 0 -5.17894 0
						CHANNELS 3 Zrotation Yrotation Xrotation
						End Site
						{
							OFFSET 0.0 0.0 0.0
						}
					}
				}
			}
		}
		JOINT right_hip
		{
			OFFSET 0 0 1.69774
			CHANNELS 3 Zrotation Yrotation Xrotation
			JOINT right_knee
			{
				OFFSET 0 -8.43092 0
				CHANNELS 3 Zrotation Yrotation Xrotation
				JOINT right_ankle
				{
					OFFSET 0 -8.1974 0
					CHANNELS 3 Zrotation Yrotation Xrotation
					End Site
					{
						OFFSET 0.0 0.0 0.0
					}
				}
			}
		}
		JOINT left_hip
		{
			OFFSET 0 0 -1.69774
			CHANNELS 3 Zrotation Yrotation Xrotation
			JOINT left_knee
			{
				OFFSET 0 -8.43092 0
				CHANNELS 3 Zrotation Yrotation Xrotation
				JOINT left_ankle
				{
					OFFSET 0 -8.1974 0
					CHANNELS 3 Zrotation Yrotation Xrotation
					End Site
					{
						OFFSET 0.0 0.0 0.0
					}
				}
			}
		}
	}
	JOINT red_arrow
	{
		OFFSET 0 0 0
		CHANNELS 3 Zrotation Yrotation Xrotation
		End Site
		{
			OFFSET 0.0 0.0 0.0
		}
	}
	JOINT blue_arrow
	{
		OFFSET 0 0 0
		CHANNELS 3 Zrotation Yrotation Xrotation
		End Site
		{
			OFFSET 0.0 0.0 0.0
		}
	}
}
MOTION
Frames: 7
Frame Time: 0.0333333333333333
701.45980887413 0 -64.8583432480693 0 3.38947188522633 0 0 17.8269534468651 0 -25.5827557321865 5.70584675291272 -0.415994609529752 -9.66773012153921 -7.63815927242209 1.59360158950229 3.55534826660806 9.18375899044766 12.0354687394507 -60.837295747094 1.30422485105931 -43.7290626000349 55.8538446170226 0 0 0 0 0 37.6265651123433 -39.0326966091374 55.589126130888 104.795517303425 0 0 0 0 0 75.1405842379929 -9.85132960561982 -4.75683486571545 -41.7618188120198 0 0 8.64086424036593 -14.9383626248785 22.763155736254 -10.0037575131842 11.5632009090043 -2.9892096883552 0.000825151541349629 0 0 -34.8647796723988 -3.45319074802514 -7.77940846814847 0 0 0 0 0 0
704.211528432369 0 -65.2074419748038 0 3.7079767953718 0 0 17.5774585008621 0 -22.2402578990612 5.60436431014708 0.75661320144293 -11.4517228843515 -8.01579423648034 2.1549755539587 4.8743628618006 8.86188184263417 14.3873632533259 -59.544495425129 -5.40675734982535 -40.913097088649 61.5429687239147 0 0 0 0 0 33.3936716995332 -32.1393046427154 49.0776286241888 106.625973850042 0 0 0 0 0 69.9458766419115 -11.3755773476201 -4.91403896481861 -33.9451693258442 0 0 8.4532223097627 -14.0739754548262 17.4842936280515 -15.3400435032481 13.5046106677505 -1.69606954921688 -7.20422484311464 0 0 -33.9926987817911 -4.13210655901995 -10.4742367488813 0 0 0 0 0 0
706.948367840052 0 -65.5743844799697 0 4.01044349106983 0 0 17.1435715794563 0 -18.550529373244 5.45012650017493 1.98263177470429 -13.8494904705255 -7.71789546911316 3.02595617281969 6.6363104278937 8.41314092437786 15.2526483839661 -58.0119500476274 -10.1328398933444 -38.263282279241 66.2752447997905 0 0 0 0 0 29.2491911028982 -25.329375109754 41.0589974961597 104.718206392209 0 0 0 0 0 65.4987142691402 -11.9799340120247 -5.49380740941613 -34.4418299464363 0 0 7.56571725704546 -11.5247640287323 12.7607209499574 -15.9587901613275 12.3611268810878 -0.179654414412923 -24.7899974227374 0 0 -30.8343172235835 -4.20307399460931 -12.198935903762 0 0 0 0 0 0
709.630737233162 0 -65.8977548051625 0 4.29805383202542 0 0 16.5241252183914 0 -15.1192619467024 5.27652611780453 2.89722118756738 -16.5241451143763 -7.07264029751391 3.73812976492838 7.96860096480461 7.61259415511688 15.1302299489171 -53.4781083722489 -10.863373506004 -33.2995666589581 68.9650552572116 0 0 0 0 0 25.7287464048976 -20.0773464398299 33.9003248013757 99.9207088399491 0 0 0 0 0 61.9929310662958 -11.7637607842166 -5.84691001018736 -40.3801432599125 0 0 5.81825875850925 -8.24041958671766 9.27650911379133 -14.484813092905 9.6759342411851 0.855534578102547 -45.1892043224376 0 0 -27.4090154315427 -4.21630849447152 -12.9035116487871 0 0 0 0 0 0
712.257984030247 0 -66.1507459416986 0 4.56152748520996 0 0 15.7869527816772 0 -12.3329363023227 4.89104270222459 3.2210224108879 -18.7696737684183 -6.00165009958653 4.27410478424198 8.21953768025745 6.66513997124627 14.0938686290793 -43.668875083275 -7.34678661703112 -26.1840998113282 68.4079508775595 0 0 0 0 0 21.7591314036831 -14.5767472214534 26.437745141847 94.4163276897275 0 0 0 0 0 55.8571062761438 -10.1896971980182 -4.70487902521445 -44.6442679247919 0 0 3.01358239529051 -4.66068476783871 6.77804097301759 -10.3431322855225 6.24144330942227 1.12156809252756 -65.9402445115689 0 0 -23.5246004143465 -3.93999769266479 -12.1548103030462 0 0 0 0 0 0
714.636377441883 0 -66.3574677482247 0 4.62475113515086 0 0 15.1889900326729 0 -11.4140931396567 1.17749842844046 3.1633586031322 -19.5597950599099 -3.07241404128593 3.29092759439541 6.30393920877491 5.50828855272387 13.1936110978063 -26.4788138381014 0.0899188934986839 -19.5097571068958 65.3400348080648 0 0 0 0 0 15.1648302330973 -9.62968536894521 19.5567766356249 88.0826932723747 0 0 0 0 0 53.1081324818436 -8.55039165091808 -1.49128583507654 -57.6953045983931 0 0 17.3241833314046 -3.37331960097138 -7.86729184637553 -1.30902638658593 5.0335590587553 -0.25723191315083 -86.895305866303 0 0 -18.2269202542385 -2.7263470404345 -9.94221933978469 0 0 0 0 0 0
716.708163285256 0 -66.5174917392433 0 4.35805209316756 0 0 15.05672352314 0 -14.7852821198204 -4.9003297854058 2.46971359785144 -13.2262466046328 -0.972237662006114 1.75685941175563 4.0188979598141 2.57205877631641 14.0614671605657 -5.09173155817258 10.19974032825 -19.6171907140638 63.5703942658171 0 0 0 0 0 0.517408777192859 -12.3595620252369 18.5879051121703 74.9909418411311 0 0 0 0 0 50.5530455748401 -7.44564539242143 2.22532332470152 -62.9309519557205 0 0 27.3099213557938 0.0633928994711415 -7.28691220807146 17.1970055535349 6.09662325782278 1.24769234110035 -103.08682936933 0 0 -7.52396261386736 2.72045662885332 -7.25222054309832 0 0 0 0 0 0
